<svg style="position: absolute; width: 0; height: 0; overflow: hidden;" version="1.6" xmlns="http://www.w3.org/2000/svg" xmlns:xlink="http://www.w3.org/1999/xlink">
<defs>
<symbol id="icon-search" viewBox="0 0 30 32">
<path class="path1" d="M20.571 14.857q0-3.304-2.348-5.652t-5.652-2.348-5.652 2.348-2.348 5.652 2.348 5.652 5.652 2.348 5.652-2.348 2.348-5.652zM29.714 29.714q0 0.929-0.679 1.607t-1.607 0.679q-0.964 0-1.607-0.679l-6.125-6.107q-3.196 2.214-7.125 2.214-2.554 0-4.884-0.991t-4.018-2.679-2.679-4.018-0.991-4.884 0.991-4.884 2.679-4.018 4.018-2.679 4.884-0.991 4.884 0.991 4.018 2.679 2.679 4.018 0.991 4.884q0 3.929-2.214 7.125l6.125 6.125q0.661 0.661 0.661 1.607z"></path>
</symbol>
<symbol id="icon-envelope-o" viewBox="0 0 32 32">
<path class="path1" d="M29.714 26.857v-13.714q-0.571 0.643-1.232 1.179-4.786 3.679-7.607 6.036-0.911 0.768-1.482 1.196t-1.545 0.866-1.83 0.438h-0.036q-0.857 0-1.83-0.438t-1.545-0.866-1.482-1.196q-2.821-2.357-7.607-6.036-0.661-0.536-1.232-1.179v13.714q0 0.232 0.17 0.402t0.402 0.17h26.286q0.232 0 0.402-0.17t0.17-0.402zM29.714 8.089v-0.438t-0.009-0.232-0.054-0.223-0.098-0.161-0.161-0.134-0.25-0.045h-26.286q-0.232 0-0.402 0.17t-0.17 0.402q0 3 2.625 5.071 3.446 2.714 7.161 5.661 0.107 0.089 0.625 0.527t0.821 0.67 0.795 0.563 0.902 0.491 0.768 0.161h0.036q0.357 0 0.768-0.161t0.902-0.491 0.795-0.563 0.821-0.67 0.625-0.527q3.714-2.946 7.161-5.661 0.964-0.768 1.795-2.063t0.83-2.348zM32 7.429v19.429q0 1.179-0.839 2.018t-2.018 0.839h-26.286q-1.179 0-2.018-0.839t-0.839-2.018v-19.429q0-1.179 0.839-2.018t2.018-0.839h26.286q1.179 0 2.018 0.839t0.839 2.018z"></path>
</symbol>
<symbol id="icon-close" viewBox="0 0 32 32">
<g transform="translate(0.000000,32.000000) scale(0.032000,-0.032000)" stroke="none">
<path d="M165 820 l-29 -31 147 -147 147 -147 -140 -140 -140 -139 27 -28 c15
-16 31 -27 36 -25 5 1 69 63 143 137 l134 134 140 -139 140 -140 32 33 33 32
-140 139 -139 140 140 141 c76 77 141 143 143 145 3 3 -8 19 -24 35 l-29 31
-146 -146 -145 -145 -145 145 c-80 80 -147 145 -150 145 -4 0 -19 -14 -35 -30z"/>
</g>
</symbol>
<symbol id="icon-angle-down" viewBox="0 0 21 32">
<path class="path1" d="M19.196 13.143q0 0.232-0.179 0.411l-8.321 8.321q-0.179 0.179-0.411 0.179t-0.411-0.179l-8.321-8.321q-0.179-0.179-0.179-0.411t0.179-0.411l0.893-0.893q0.179-0.179 0.411-0.179t0.411 0.179l7.018 7.018 7.018-7.018q0.179-0.179 0.411-0.179t0.411 0.179l0.893 0.893q0.179 0.179 0.179 0.411z"></path>
</symbol>
<symbol id="icon-folder-open" viewBox="0 0 34 32">
<path class="path1" d="M33.554 17q0 0.554-0.554 1.179l-6 7.071q-0.768 0.911-2.152 1.545t-2.563 0.634h-19.429q-0.607 0-1.080-0.232t-0.473-0.768q0-0.554 0.554-1.179l6-7.071q0.768-0.911 2.152-1.545t2.563-0.634h19.429q0.607 0 1.080 0.232t0.473 0.768zM27.429 10.857v2.857h-14.857q-1.679 0-3.518 0.848t-2.929 2.134l-6.107 7.179q0-0.071-0.009-0.223t-0.009-0.223v-17.143q0-1.643 1.179-2.821t2.821-1.179h5.714q1.643 0 2.821 1.179t1.179 2.821v0.571h9.714q1.643 0 2.821 1.179t1.179 2.821z"></path>
</symbol>
<symbol id="icon-bars" viewBox="0 0 32 32">
<g transform="translate(0.000000,32.000000) scale(0.032000,-0.032000)" stroke="none">
<path d="M50 785 l0 -45 450 0 450 0 0 45 0 45 -450 0 -450 0 0 -45z"/>
<path d="M50 505 l0 -45 450 0 450 0 0 45 0 45 -450 0 -450 0 0 -45z"/>
<path d="M50 225 l0 -45 450 0 450 0 0 45 0 45 -450 0 -450 0 0 -45z"/>
</g>
</symbol>
<symbol id="icon-quote-right" viewBox="0 0 30 32">
<path class="path1" d="M13.714 5.714v12.571q0 1.857-0.723 3.545t-1.955 2.92-2.92 1.955-3.545 0.723h-1.143q-0.464 0-0.804-0.339t-0.339-0.804v-2.286q0-0.464 0.339-0.804t0.804-0.339h1.143q1.893 0 3.232-1.339t1.339-3.232v-0.571q0-0.714-0.5-1.214t-1.214-0.5h-4q-1.429 0-2.429-1t-1-2.429v-6.857q0-1.429 1-2.429t2.429-1h6.857q1.429 0 2.429 1t1 2.429zM29.714 5.714v12.571q0 1.857-0.723 3.545t-1.955 2.92-2.92 1.955-3.545 0.723h-1.143q-0.464 0-0.804-0.339t-0.339-0.804v-2.286q0-0.464 0.339-0.804t0.804-0.339h1.143q1.893 0 3.232-1.339t1.339-3.232v-0.571q0-0.714-0.5-1.214t-1.214-0.5h-4q-1.429 0-2.429-1t-1-2.429v-6.857q0-1.429 1-2.429t2.429-1h6.857q1.429 0 2.429 1t1 2.429z"></path>
</symbol>
<symbol id="icon-mail-reply" viewBox="0 0 32 32">
<path class="path1" d="M32 20q0 2.964-2.268 8.054-0.054 0.125-0.188 0.429t-0.241 0.536-0.232 0.393q-0.214 0.304-0.5 0.304-0.268 0-0.42-0.179t-0.152-0.446q0-0.161 0.045-0.473t0.045-0.42q0.089-1.214 0.089-2.196 0-1.804-0.313-3.232t-0.866-2.473-1.429-1.804-1.884-1.241-2.375-0.759-2.75-0.384-3.134-0.107h-4v4.571q0 0.464-0.339 0.804t-0.804 0.339-0.804-0.339l-9.143-9.143q-0.339-0.339-0.339-0.804t0.339-0.804l9.143-9.143q0.339-0.339 0.804-0.339t0.804 0.339 0.339 0.804v4.571h4q12.732 0 15.625 7.196 0.946 2.393 0.946 5.946z"></path>
</symbol>
<symbol id="icon-youtube" viewBox="0 0 27 32">
<path class="path1" d="M17.339 22.214v3.768q0 1.196-0.696 1.196-0.411 0-0.804-0.393v-5.375q0.393-0.393 0.804-0.393 0.696 0 0.696 1.196zM23.375 22.232v0.821h-1.607v-0.821q0-1.214 0.804-1.214t0.804 1.214zM6.125 18.339h1.911v-1.679h-5.571v1.679h1.875v10.161h1.786v-10.161zM11.268 28.5h1.589v-8.821h-1.589v6.75q-0.536 0.75-1.018 0.75-0.321 0-0.375-0.375-0.018-0.054-0.018-0.625v-6.5h-1.589v6.982q0 0.875 0.143 1.304 0.214 0.661 1.036 0.661 0.857 0 1.821-1.089v0.964zM18.929 25.857v-3.518q0-1.304-0.161-1.768-0.304-1-1.268-1-0.893 0-1.661 0.964v-3.875h-1.589v11.839h1.589v-0.857q0.804 0.982 1.661 0.982 0.964 0 1.268-0.982 0.161-0.482 0.161-1.786zM24.964 25.679v-0.232h-1.625q0 0.911-0.036 1.089-0.125 0.643-0.714 0.643-0.821 0-0.821-1.232v-1.554h3.196v-1.839q0-1.411-0.482-2.071-0.696-0.911-1.893-0.911-1.214 0-1.911 0.911-0.5 0.661-0.5 2.071v3.089q0 1.411 0.518 2.071 0.696 0.911 1.929 0.911 1.286 0 1.929-0.946 0.321-0.482 0.375-0.964 0.036-0.161 0.036-1.036zM14.107 9.375v-3.75q0-1.232-0.768-1.232t-0.768 1.232v3.75q0 1.25 0.768 1.25t0.768-1.25zM26.946 22.786q0 4.179-0.464 6.25-0.25 1.054-1.036 1.768t-1.821 0.821q-3.286 0.375-9.911 0.375t-9.911-0.375q-1.036-0.107-1.83-0.821t-1.027-1.768q-0.464-2-0.464-6.25 0-4.179 0.464-6.25 0.25-1.054 1.036-1.768t1.839-0.839q3.268-0.357 9.893-0.357t9.911 0.357q1.036 0.125 1.83 0.839t1.027 1.768q0.464 2 0.464 6.25zM9.125 0h1.821l-2.161 7.125v4.839h-1.786v-4.839q-0.25-1.321-1.089-3.786-0.661-1.839-1.161-3.339h1.893l1.268 4.696zM15.732 5.946v3.125q0 1.446-0.5 2.107-0.661 0.911-1.893 0.911-1.196 0-1.875-0.911-0.5-0.679-0.5-2.107v-3.125q0-1.429 0.5-2.089 0.679-0.911 1.875-0.911 1.232 0 1.893 0.911 0.5 0.661 0.5 2.089zM21.714 3.054v8.911h-1.625v-0.982q-0.946 1.107-1.839 1.107-0.821 0-1.054-0.661-0.143-0.429-0.143-1.339v-7.036h1.625v6.554q0 0.589 0.018 0.625 0.054 0.393 0.375 0.393 0.482 0 1.018-0.768v-6.804h1.625z"></path>
</symbol>
<symbol id="icon-hashtag" viewBox="0 0 32 32">
<path class="path1" d="M17.696 18.286l1.143-4.571h-4.536l-1.143 4.571h4.536zM31.411 9.286l-1 4q-0.125 0.429-0.554 0.429h-5.839l-1.143 4.571h5.554q0.268 0 0.446 0.214 0.179 0.25 0.107 0.5l-1 4q-0.089 0.429-0.554 0.429h-5.839l-1.446 5.857q-0.125 0.429-0.554 0.429h-4q-0.286 0-0.464-0.214-0.161-0.214-0.107-0.5l1.393-5.571h-4.536l-1.446 5.857q-0.125 0.429-0.554 0.429h-4.018q-0.268 0-0.446-0.214-0.161-0.214-0.107-0.5l1.393-5.571h-5.554q-0.268 0-0.446-0.214-0.161-0.214-0.107-0.5l1-4q0.125-0.429 0.554-0.429h5.839l1.143-4.571h-5.554q-0.268 0-0.446-0.214-0.179-0.25-0.107-0.5l1-4q0.089-0.429 0.554-0.429h5.839l1.446-5.857q0.125-0.429 0.571-0.429h4q0.268 0 0.446 0.214 0.161 0.214 0.107 0.5l-1.393 5.571h4.536l1.446-5.857q0.125-0.429 0.571-0.429h4q0.268 0 0.446 0.214 0.161 0.214 0.107 0.5l-1.393 5.571h5.554q0.268 0 0.446 0.214 0.161 0.214 0.107 0.5z"></path>
</symbol>
<symbol id="icon-chain" viewBox="0 0 30 32">
<path class="path1" d="M26 21.714q0-0.714-0.5-1.214l-3.714-3.714q-0.5-0.5-1.214-0.5-0.75 0-1.286 0.571 0.054 0.054 0.339 0.33t0.384 0.384 0.268 0.339 0.232 0.455 0.063 0.491q0 0.714-0.5 1.214t-1.214 0.5q-0.268 0-0.491-0.063t-0.455-0.232-0.339-0.268-0.384-0.384-0.33-0.339q-0.589 0.554-0.589 1.304 0 0.714 0.5 1.214l3.679 3.696q0.482 0.482 1.214 0.482 0.714 0 1.214-0.464l2.625-2.607q0.5-0.5 0.5-1.196zM13.446 9.125q0-0.714-0.5-1.214l-3.679-3.696q-0.5-0.5-1.214-0.5-0.696 0-1.214 0.482l-2.625 2.607q-0.5 0.5-0.5 1.196 0 0.714 0.5 1.214l3.714 3.714q0.482 0.482 1.214 0.482 0.75 0 1.286-0.554-0.054-0.054-0.339-0.33t-0.384-0.384-0.268-0.339-0.232-0.455-0.063-0.491q0-0.714 0.5-1.214t1.214-0.5q0.268 0 0.491 0.063t0.455 0.232 0.339 0.268 0.384 0.384 0.33 0.339q0.589-0.554 0.589-1.304zM29.429 21.714q0 2.143-1.518 3.625l-2.625 2.607q-1.482 1.482-3.625 1.482-2.161 0-3.643-1.518l-3.679-3.696q-1.482-1.482-1.482-3.625 0-2.196 1.571-3.732l-1.571-1.571q-1.536 1.571-3.714 1.571-2.143 0-3.643-1.5l-3.714-3.714q-1.5-1.5-1.5-3.643t1.518-3.625l2.625-2.607q1.482-1.482 3.625-1.482 2.161 0 3.643 1.518l3.679 3.696q1.482 1.482 1.482 3.625 0 2.196-1.571 3.732l1.571 1.571q1.536-1.571 3.714-1.571 2.143 0 3.643 1.5l3.714 3.714q1.5 1.5 1.5 3.643z"></path>
</symbol>
<symbol id="icon-arrow-left" viewBox="0 0 43 32">
<path class="path1" d="M42.311 14.044c-0.178-0.178-0.533-0.356-0.711-0.356h-33.778l10.311-10.489c0.178-0.178 0.356-0.533 0.356-0.711 0-0.356-0.178-0.533-0.356-0.711l-1.6-1.422c-0.356-0.178-0.533-0.356-0.889-0.356s-0.533 0.178-0.711 0.356l-14.578 14.933c-0.178 0.178-0.356 0.533-0.356 0.711s0.178 0.533 0.356 0.711l14.756 14.933c0 0.178 0.356 0.356 0.533 0.356s0.533-0.178 0.711-0.356l1.6-1.6c0.178-0.178 0.356-0.533 0.356-0.711s-0.178-0.533-0.356-0.711l-10.311-10.489h33.778c0.178 0 0.533-0.178 0.711-0.356 0.356-0.178 0.533-0.356 0.533-0.711v-2.133c0-0.356-0.178-0.711-0.356-0.889z"></path>
</symbol>
<symbol id="icon-arrow-right" viewBox="0 0 43 32">
<path class="path1" d="M0.356 17.956c0.178 0.178 0.533 0.356 0.711 0.356h33.778l-10.311 10.489c-0.178 0.178-0.356 0.533-0.356 0.711 0 0.356 0.178 0.533 0.356 0.711l1.6 1.6c0.178 0.178 0.533 0.356 0.711 0.356s0.533-0.178 0.711-0.356l14.756-14.933c0.178-0.356 0.356-0.711 0.356-0.889s-0.178-0.533-0.356-0.711l-14.756-14.933c0-0.178-0.356-0.356-0.533-0.356s-0.533 0.178-0.711 0.356l-1.6 1.6c-0.178 0.178-0.356 0.533-0.356 0.711s0.178 0.533 0.356 0.711l10.311 10.489h-33.778c-0.178 0-0.533 0.178-0.711 0.356-0.356 0.178-0.533 0.356-0.533 0.711v2.311c0 0.178 0.178 0.533 0.356 0.711z"></path>
</symbol>
<symbol id="icon-play" viewBox="0 0 22 28">
<path d="M21.625 14.484l-20.75 11.531c-0.484 0.266-0.875 0.031-0.875-0.516v-23c0-0.547 0.391-0.781 0.875-0.516l20.75 11.531c0.484 0.266 0.484 0.703 0 0.969z"></path>
</symbol>
<symbol id="icon-pause" viewBox="0 0 24 28">
<path d="M24 3v22c0 0.547-0.453 1-1 1h-8c-0.547 0-1-0.453-1-1v-22c0-0.547 0.453-1 1-1h8c0.547 0 1 0.453 1 1zM10 3v22c0 0.547-0.453 1-1 1h-8c-0.547 0-1-0.453-1-1v-22c0-0.547 0.453-1 1-1h8c0.547 0 1 0.453 1 1z"></path>
</symbol>
<!-- <symbol id="svg-bl-logo" viewBox="0 0 600 500"> -->
<!-- <g transform="translate(0.000000,500.000000) scale(0.066667,-0.066667)" stroke="none"> -->
<symbol id="svg-bl-logo" viewBox="0 0 900 750">
<g transform="translate(0.000000,750.000000) scale(0.100000,-0.100000)" stroke="none">
<path d="M3605 7118 c-2 -7 -6 -35 -7 -63 l-3 -50 -70 -5 c-146 -11 -164 -39
-165 -263 0 -173 8 -208 55 -245 15 -12 41 -22 56 -22 27 0 29 -3 29 -37 0
-20 -7 -77 -15 -127 -28 -159 -51 -316 -90 -591 -9 -60 -22 -155 -30 -210 -29
-203 -87 -638 -116 -875 -6 -52 -15 -105 -20 -117 l-9 -23 -1514 0 -1515 0
-15 -22 c-21 -30 -20 -54 4 -78 20 -20 33 -20 1517 -20 824 0 1503 -4 1510 -8
9 -6 10 -24 3 -72 -9 -61 -15 -117 -55 -470 -25 -230 -68 -650 -90 -890 -26
-291 -69 -787 -78 -905 l-2 -30 -95 -5 c-112 -7 -137 -16 -173 -63 l-27 -36 0
-274 c0 -208 -3 -277 -12 -285 -7 -5 -53 -13 -103 -17 -169 -13 -468 -81 -590
-135 -11 -5 -60 -26 -110 -46 -49 -21 -112 -51 -138 -66 -26 -15 -50 -28 -52
-28 -9 0 -114 -68 -194 -125 -129 -93 -155 -110 -171 -118 -8 -4 -30 -16 -49
-28 -40 -24 -160 -85 -211 -107 -19 -8 -43 -19 -52 -23 -22 -11 -218 -73 -288
-92 -127 -33 -364 -66 -488 -67 -91 0 -129 -64 -64 -106 24 -16 40 -16 187 -5
195 15 305 35 495 88 226 64 505 203 690 343 199 151 458 272 735 343 250 64
303 66 1582 67 l1132 0 73 25 c188 63 290 120 402 224 42 40 136 157 173 216
39 62 81 171 128 330 16 57 23 76 61 178 24 65 59 141 103 225 25 48 150 233
179 264 38 42 165 168 199 198 93 84 272 193 418 256 17 7 46 20 67 28 20 9
41 16 47 16 6 0 25 6 43 14 18 8 60 22 93 31 60 17 99 28 210 60 33 9 73 23
88 31 16 8 33 14 39 14 9 0 247 116 293 143 114 67 280 201 371 298 43 47 174
214 174 222 0 3 16 29 35 59 37 56 145 270 145 287 0 6 6 25 14 43 21 50 41
107 62 173 23 76 68 161 108 203 51 55 147 110 221 129 68 17 97 58 70 99 -22
33 -75 31 -166 -6 -186 -75 -277 -178 -350 -395 l-27 -80 -357 0 -356 0 -14
25 c-7 14 -21 43 -30 65 -10 22 -22 48 -26 57 -18 36 -69 185 -108 314 -30 98
-31 107 -31 295 l0 195 -29 32 c-25 27 -37 32 -74 32 -59 0 -99 -40 -107 -108
l-5 -47 -325 0 -325 0 -3 46 c-4 66 -45 109 -105 109 -46 0 -64 -10 -91 -50
-13 -20 -16 -54 -16 -202 0 -190 0 -188 -61 -283 -10 -16 -22 -37 -26 -45 -3
-8 -40 -59 -81 -113 -79 -103 -155 -177 -184 -177 -18 0 -48 42 -79 110 -42
90 -67 176 -93 320 -17 90 -33 113 -74 108 -22 -3 -43 -30 -56 -70 -5 -16 -24
-18 -216 -18 -192 0 -211 2 -216 18 -14 42 -29 63 -52 69 -38 9 -55 -8 -76
-73 -36 -115 -75 -213 -93 -235 -7 -8 -13 -20 -13 -26 0 -6 -30 -40 -66 -77
-51 -51 -88 -77 -160 -111 -51 -25 -106 -45 -123 -45 -29 0 -30 2 -36 58 -3
31 -12 104 -20 162 -8 58 -21 159 -30 225 -43 327 -84 625 -120 868 -36 239
-47 307 -61 387 -8 47 -14 102 -14 123 0 32 3 37 23 37 14 0 39 15 60 37 l37
36 0 185 c0 168 -2 188 -20 217 -24 39 -42 46 -140 54 l-75 6 -3 63 -3 62
-290 0 c-223 0 -291 -3 -294 -12z m573 -660 c7 -7 12 -26 12 -44 0 -17 6 -65
14 -105 8 -41 21 -126 30 -189 9 -63 23 -158 31 -210 29 -193 44 -298 60 -410
8 -63 22 -162 30 -220 8 -58 21 -159 30 -225 8 -66 22 -166 30 -221 8 -56 15
-116 15 -133 0 -18 7 -76 15 -129 7 -53 21 -160 30 -237 9 -77 23 -194 30
-260 8 -66 21 -185 30 -265 8 -80 20 -183 25 -230 6 -47 12 -112 15 -145 3
-33 12 -125 20 -205 27 -273 45 -465 60 -640 8 -96 22 -258 31 -360 9 -102 15
-196 13 -210 l-4 -25 -790 0 -790 0 -4 30 c-1 17 4 113 13 215 9 102 23 264
32 360 23 264 64 697 89 940 34 315 92 832 120 1053 49 384 70 546 90 692 8
55 21 151 29 213 34 246 48 341 61 422 8 47 21 137 30 200 10 63 23 148 31
189 8 40 14 88 14 105 0 18 5 37 12 44 9 9 83 12 273 12 190 0 264 -3 273 -12z
m2940 -1300 c19 -19 14 -72 -13 -119 -13 -24 -29 -53 -35 -64 -6 -11 -19 -33
-30 -50 -11 -16 -23 -37 -27 -45 -3 -8 -19 -31 -35 -51 -15 -20 -28 -40 -28
-44 0 -8 -67 -89 -135 -162 -91 -100 -293 -233 -331 -219 -12 4 -14 66 -14
375 0 342 1 371 18 380 26 16 614 15 630 -1z m-1510 -399 c3 -235 3 -234 -68
-217 -176 41 -276 150 -335 363 -10 38 -10 52 -2 57 7 5 100 7 207 5 l195 -2
3 -206z m650 -121 c-3 -231 -3 -233 -25 -236 -44 -6 -253 115 -253 147 0 4 35
43 78 87 73 74 172 203 172 224 0 6 7 10 15 10 13 0 15 -30 13 -232z m-1208
27 c0 -224 4 -217 -89 -196 -31 7 -117 20 -192 30 -75 10 -142 22 -148 25 -16
10 -3 26 21 26 11 0 32 6 46 14 15 8 45 23 67 33 76 35 166 106 210 167 43 59
75 96 82 96 2 0 3 -88 3 -195z m2080 -429 c0 -322 -4 -587 -8 -590 -4 -2 -39
16 -78 42 -96 64 -106 71 -129 82 -11 6 -33 19 -50 29 -45 29 -115 67 -260
140 l-130 66 -3 141 c-2 106 1 143 10 150 7 6 38 18 68 29 113 38 218 112 350
245 69 69 143 153 165 187 22 35 46 63 53 63 9 0 12 -124 12 -584z m-1906 420
c58 -99 194 -185 321 -202 28 -4 53 -12 57 -18 4 -6 8 -34 8 -62 0 -55 -15
-73 -48 -55 -17 9 -106 35 -172 51 -110 25 -193 50 -205 60 -12 10 -15 41 -15
141 0 146 9 161 54 85z m558 -7 c33 -55 34 -65 3 -85 -43 -28 -55 -13 -55 67
0 82 10 86 52 18z m1617 -122 c29 -69 69 -141 144 -262 57 -93 254 -310 324
-357 18 -13 33 -30 33 -39 0 -28 -253 -251 -320 -282 -8 -4 -28 -15 -45 -25
-77 -47 -170 -92 -182 -88 -19 8 -19 1136 0 1136 6 0 27 -37 46 -83z m-1457
-73 c29 -25 63 -51 75 -57 69 -37 165 -79 210 -92 29 -8 35 -32 31 -125 -4
-90 2 -88 -143 -35 -55 20 -113 40 -130 44 -16 5 -41 13 -55 19 -14 5 -56 20
-94 31 -111 35 -106 29 -106 127 0 59 4 86 13 88 9 2 101 32 144 45 1 1 25
-20 55 -45z m-1183 -70 c53 -8 124 -22 158 -30 34 -8 70 -14 79 -14 40 0 54
-29 54 -110 0 -46 -5 -81 -12 -88 -7 -7 -31 -12 -53 -12 -43 0 -61 -12 -84
-58 -9 -17 -9 -30 0 -56 24 -67 16 -66 527 -66 396 0 461 -2 472 -15 7 -8 17
-15 22 -15 7 0 82 -53 153 -107 68 -53 151 -118 166 -131 18 -16 19 -35 19
-355 l0 -338 -47 -42 c-154 -136 -314 -336 -391 -487 -12 -25 -27 -52 -32 -60
-13 -21 -70 -149 -70 -156 0 -3 -6 -20 -14 -37 -8 -18 -22 -57 -31 -87 -10
-30 -24 -73 -31 -95 -8 -23 -14 -48 -14 -57 0 -16 -5 -31 -47 -128 -80 -186
-217 -335 -391 -425 -84 -44 -82 -49 -82 213 0 240 -6 280 -44 317 -35 34 -73
45 -157 45 -55 0 -81 4 -83 13 -2 6 -11 104 -20 217 -37 457 -69 807 -121
1305 -40 388 -51 489 -85 768 -6 48 -8 92 -5 97 9 14 54 12 164 -6z m3446 -24
c6 -10 -75 -182 -115 -245 -11 -16 -23 -37 -26 -45 -11 -23 -74 -100 -83 -100
-4 0 -55 46 -112 103 -107 104 -243 273 -233 288 8 13 561 11 569 -1z m-2925
-110 c30 -12 66 -25 80 -29 58 -19 150 -67 150 -78 0 -18 -310 -19 -328 -1
-13 13 -17 120 -5 132 10 9 33 4 103 -24z m1257 -902 c45 -69 73 -122 73 -136
0 -5 -8 -12 -17 -16 -10 -3 -38 -17 -62 -31 -24 -13 -47 -22 -52 -19 -5 3 -9
63 -9 135 0 152 6 159 67 67z"/>
</g>
</symbol>
</defs>
</svg>
